# xmcd
#
# Track frame offsets:
# 150
# 20157
# 41120
# 59375
# 80071
# 97262
# 117134
# 134292
# 159737
# 178835
# 198332
# 220210
#
# Disc length: 3166 seconds
#
#
# Revision: 1
# Processed by: cddbd v1.5.1PL0 Copyright (c) Steve Scherf et al.
# Submitted via: FreeRIP 2.91 
#
DISCID=b50c5c0c
DTITLE=ALEX UBAGO - FANTASIA O REALIDAD
DYEAR=1900
DGENRE=Ballad
TTITLE0=AUNQUE NO TE PUEDA VER
TTITLE1=FANTASIA O REALIDAD
TTITLE2=DAME TU AIRE
TTITLE3=PREFIERO
TTITLE4=CUANTO ANTES
TTITLE5=OTRO DIA MAS
TTITLE6=ALLI ESTARE
TTITLE7=DESPERTAR
TTITLE8=LO MAS GRANDE
TTITLE9=POR TANTAS COSAS
TTITLE10=SALIDA
TTITLE11=NO SOY YO
EXTD=
EXTT0=
EXTT1=
EXTT2=
EXTT3=
EXTT4=
EXTT5=
EXTT6=
EXTT7=
EXTT8=
EXTT9=
EXTT10=
EXTT11=
PLAYORDER=
